<svg height="512pt" viewBox="0 0 512 512" width="512pt" xmlns="http://www.w3.org/2000/svg"><path d="m496.984375 512h-481.984375c-8.285156 0-15-6.714844-15-15v-453.734375c0-8.285156 6.714844-15 15-15h481.984375c8.28125 0 15 6.714844 15 15v453.734375c0 8.285156-6.714844 15-15 15zm0 0" fill="#dfeefa"/><path d="m496.984375 28.265625h-240.984375v483.734375h240.984375c8.28125 0 15-6.714844 15-15v-453.734375c0-8.285156-6.714844-15-15-15zm0 0" fill="#c9dff7"/><path d="m511.984375 128.136719v-84.871094c0-8.285156-6.71875-15-15-15h-481.984375c-8.285156 0-15 6.714844-15 15v84.871094zm0 0" fill="#ff5c42"/><path d="m496.984375 28.265625h-240.984375v99.871094h255.984375v-84.871094c0-8.285156-6.714844-15-15-15zm0 0" fill="#d9311c"/><path d="m436.984375 83.386719c-8.285156 0-15-6.714844-15-15v-53.386719c0-8.285156 6.714844-15 15-15s15 6.714844 15 15v53.386719c0 8.285156-6.714844 15-15 15zm0 0" fill="#878477"/><path d="m75.003906 83.386719c-8.28125 0-15-6.714844-15-15v-53.375c0-8.285157 6.71875-15.0000002 15-15.0000002 8.285156 0 15 6.7148432 15 15.0000002v53.375c0 8.285156-6.714844 15-15 15zm0 0" fill="#b0ac9b"/><path d="m185.214844 220.753906c29 0 56 19 56 50.75 0 54-79.25 71.5-79.25 97.496094v6h69.5c5.5 0 10.25 6.5 10.25 14s-4.75 14.5-10.25 14.5h-89c-5.75 0-14.25-4-14.25-10.25v-24.25c0-39.996094 80.5-61.246094 80.5-96.496094 0-10.25-6.75-22.25-23.25-22.25-12.25 0-22.25 6.5-22.25 22 0 6-6.25 12-17 12-8.5 0-14.75-4-14.75-17.5 0-28.5 26-46 53.75-46zm0 0" fill="#7e9bcc"/><path d="m269.210938 281.503906v-3.5c0-41.75 25.75-57.25 58.496093-57.25 33 0 59 15.5 59 57.25v69.75c0 41.746094-26.5 57.246094-60.5 57.246094-39.746093 0-56.996093-24.75-56.996093-45.75 0-10.246094 5-13.496094 15.25-13.496094 9 0 17 2.5 17 12.246094 0 11.75 11.75 18.5 25.746093 18.5 16.75 0 27-9 27-28.746094v-27.25c-8.25 9.75-20.25 12.75-33.25 12.75-28.246093 0-51.746093-12.25-51.746093-51.75zm84.996093-5.5c0-19.75-10-28.75-26.5-28.75-16.246093 0-25.996093 9-25.996093 28.75v3.25c0 20.75 9.75 28.5 26.246093 28.5 16 0 26.25-7.25 26.25-26.25zm0 0" fill="#5877a6"/></svg>